<svg preserveAspectRatio="none" width="100%" height="100%" overflow="visible" style="display: block;" viewBox="0 0 32 32" fill="none" xmlns="http://www.w3.org/2000/svg">
<g id="CaptionNest logo" clip-path="url(#clip0_0_24)">
<path id="Vector" d="M24.5 0.5H7.5C3.63401 0.5 0.5 3.63401 0.5 7.5V24.5C0.5 28.366 3.63401 31.5 7.5 31.5H24.5C28.366 31.5 31.5 28.366 31.5 24.5V7.5C31.5 3.63401 28.366 0.5 24.5 0.5Z" fill="var(--fill-0, #032F3B)"/>
<path id="Vector_2" d="M7.625 7.75H24.375C26.75 7.75 28.25 9.375 28.25 11.75V20.25C28.25 22.625 26.75 24.25 24.375 24.25H19.25L16 27.5L12.75 24.25H7.625C5.25 24.25 3.75 22.625 3.75 20.25V11.75C3.75 9.375 5.25 7.75 7.625 7.75Z" stroke="var(--stroke-0, #08D4ED)" stroke-width="30" stroke-linejoin="round"/>
<path id="Vector_3" d="M22.375 13H9.625C9.0382 13 8.5625 13.4757 8.5625 14.0625C8.5625 14.6493 9.0382 15.125 9.625 15.125H22.375C22.9618 15.125 23.4375 14.6493 23.4375 14.0625C23.4375 13.4757 22.9618 13 22.375 13Z" fill="var(--fill-0, #FFF1D2)"/>
<path id="Vector_4" d="M24.875 17.375H9.625C9.0382 17.375 8.5625 17.8507 8.5625 18.4375C8.5625 19.0243 9.0382 19.5 9.625 19.5H24.875C25.4618 19.5 25.9375 19.0243 25.9375 18.4375C25.9375 17.8507 25.4618 17.375 24.875 17.375Z" fill="var(--fill-0, #13DAF1)"/>
</g>
<defs>
<clipPath id="clip0_0_24">
<rect width="32" height="32" fill="white"/>
</clipPath>
</defs>
</svg>
